<svg width="156" height="156" viewBox="0 0 156 156" fill="none" xmlns="http://www.w3.org/2000/svg">
<path d="M78 0C34.9218 0 0 34.9211 0 78C0 96.7927 6.65002 114.027 17.7195 127.493C48.3696 94.9981 109.279 104.927 124.446 140.661C143.589 126.447 156 103.675 156 78C156 34.9211 121.078 0 78 0ZM124.884 40.6091C132.039 42.9629 129.261 55.0966 123.865 54.7676C94.1413 45.301 71.2898 40.4268 36.8673 45.7222C29.7127 43.3684 32.4905 31.2347 37.8862 31.5637C68.5723 28.8898 95.2513 29.6533 124.884 40.6091ZM114.705 63.5654C120.763 65.5642 118.42 75.8424 113.839 75.5625C88.653 67.5441 69.2908 63.4156 40.1236 67.8977C34.0599 65.903 36.4186 55.6219 40.99 55.9006C66.9588 53.6039 89.6347 54.3035 114.705 63.5654ZM106.384 86.2551C111.483 87.9359 109.513 96.5929 105.66 96.3574C84.4451 89.5964 68.1325 86.1214 43.5608 89.9019C38.458 88.2181 40.4342 79.5639 44.294 79.7996C66.2314 77.8874 85.1816 78.4129 106.384 86.2551V86.2551ZM69.2115 130.311C57.1796 130.311 46.3524 136.77 41.2754 146.831C52.2197 152.682 64.7223 156 78 156C86.021 156 93.7594 154.792 101.042 152.544C95.1726 140.289 81.7467 130.311 69.2115 130.311Z" fill="white"/>
</svg>
